<?xml version="1.0" encoding="UTF-8"?>
<svg xmlns="http://www.w3.org/2000/svg" viewBox="0 0 64 64" fill="none" stroke="currentColor" stroke-width="2" stroke-linecap="round" stroke-linejoin="round">
  <path d="M 8 38 Q 14 36 20 38 Q 24 44 20 48 Q 14 52 8 48 Q 4 44 8 38 Z"/>
  <circle cx="7" cy="30" r="2"/>
  <circle cx="12" cy="26" r="2"/>
  <circle cx="17" cy="26" r="2"/>
  <circle cx="22" cy="30" r="2"/>
  <path d="M 40 38 Q 46 36 52 38 Q 56 44 52 48 Q 46 52 40 48 Q 36 44 40 38 Z"/>
  <circle cx="39" cy="30" r="2"/>
  <circle cx="44" cy="26" r="2"/>
  <circle cx="49" cy="26" r="2"/>
  <circle cx="54" cy="30" r="2"/>
</svg>
